<?xml version="1.0" encoding="UTF-8" standalone="no"?>
<svg
   inkscape:export-ydpi="12.7"
   inkscape:export-xdpi="12.7"
   inkscape:export-filename="/media/sven/Data/Sync/Workspace/2D/ModelMaker/Logo_128.png"
   sodipodi:docname="logo.svg"
   inkscape:version="1.4 (86a8ad7, 2024-10-11)"
   version="1.1"
   id="svg2"
   viewBox="0 0 907.08661 907.08661"
   height="907.08661"
   width="907.08661"
   xmlns:inkscape="http://www.inkscape.org/namespaces/inkscape"
   xmlns:sodipodi="http://sodipodi.sourceforge.net/DTD/sodipodi-0.dtd"
   xmlns="http://www.w3.org/2000/svg"
   xmlns:svg="http://www.w3.org/2000/svg"
   xmlns:rdf="http://www.w3.org/1999/02/22-rdf-syntax-ns#"
   xmlns:cc="http://creativecommons.org/ns#"
   xmlns:dc="http://purl.org/dc/elements/1.1/">
  <defs
     id="defs4">
    <linearGradient
       id="linearGradient4347">
      <stop
         id="stop4349"
         offset="0"
         style="stop-color:#9a1d1d;stop-opacity:1" />
    </linearGradient>
    <linearGradient
       id="linearGradient4337"
       inkscape:swatch="gradient">
      <stop
         id="stop4339"
         offset="0"
         style="stop-color:#5c81ad;stop-opacity:1" />
      <stop
         id="stop4341"
         offset="1"
         style="stop-color:#10306a;stop-opacity:1" />
    </linearGradient>
    <filter
       id="filter4951"
       inkscape:label="Diffuse Light"
       style="color-interpolation-filters:sRGB">
      <feGaussianBlur
         id="feGaussianBlur4953"
         result="blur"
         stdDeviation="6.7000000000000002"
         in="SourceGraphic" />
      <feDiffuseLighting
         id="feDiffuseLighting4955"
         result="diffuse"
         lighting-color="#ffffff"
         surfaceScale="10"
         diffuseConstant="1">
        <feDistantLight
           id="feDistantLight4957"
           azimuth="219"
           elevation="0" />
      </feDiffuseLighting>
      <feComposite
         k4="0"
         k3="0"
         k2="0"
         id="feComposite4959"
         result="composite1"
         k1="1"
         operator="arithmetic"
         in2="diffuse"
         in="diffuse" />
      <feComposite
         k4="0"
         k2="0"
         id="feComposite4961"
         result="composite2"
         k3="1"
         operator="arithmetic"
         k1="1"
         in2="SourceGraphic"
         in="composite1" />
    </filter>
  </defs>
  <sodipodi:namedview
     inkscape:document-rotation="0"
     units="px"
     showborder="true"
     inkscape:window-maximized="1"
     inkscape:window-y="-10"
     inkscape:window-x="-12"
     inkscape:window-height="2036"
     inkscape:window-width="3840"
     showgrid="false"
     inkscape:current-layer="layer4"
     inkscape:document-units="px"
     inkscape:cy="395.70313"
     inkscape:cx="290.625"
     inkscape:zoom="1.28"
     inkscape:pageshadow="2"
     inkscape:pageopacity="0.0"
     borderopacity="1.0"
     bordercolor="#666666"
     pagecolor="#ffffff"
     id="base"
     inkscape:showpageshadow="2"
     inkscape:pagecheckerboard="0"
     inkscape:deskcolor="#d1d1d1" />
  <metadata
     id="metadata7">
    <rdf:RDF>
      <cc:Work
         rdf:about="">
        <dc:format>image/svg+xml</dc:format>
        <dc:type
           rdf:resource="http://purl.org/dc/dcmitype/StillImage" />
        <dc:title />
      </cc:Work>
    </rdf:RDF>
  </metadata>
  <g
     transform="translate(0,-145.27559)"
     inkscape:label="Logo"
     id="layer4"
     inkscape:groupmode="layer">
    <g
       style="display:inline;opacity:1"
       inkscape:label="M"
       id="layer8"
       inkscape:groupmode="layer">
      <path
         inkscape:connector-curvature="0"
         id="rect5196"
         d="m 178.95409,439.10782 v 426.9968 h 79.27031 v -376.3108 z"
         style="display:inline;opacity:1;fill:#ffffff;fill-opacity:1;fill-rule:evenodd;stroke:#ffffff;stroke-width:4.75268;stroke-miterlimit:4;stroke-dasharray:none;stroke-opacity:1" />
      <path
         sodipodi:nodetypes="ssscccsssssss"
         inkscape:connector-curvature="0"
         id="rect5198"
         d="m 219.10752,276.86262 c -21.82406,-0.21671 -43.55594,8.99242 -58.76858,27.07221 -27.04469,32.14183 -25.50654,83.17301 9.2013,106.83474 l 235.63785,160.64371 c 1.70605,-10.48966 7.5569,-26.03259 17.13462,-36.49492 9.02574,-9.81309 18.72879,-15.30315 32.57521,-20.02783 L 267.17366,294.73354 c -11.92367,-13.98446 -31.09188,-17.70236 -48.06614,-17.87092 z m -0.50654,27.40766 c 26.58653,-7e-5 48.13835,21.55175 48.13828,48.13827 7e-5,26.58652 -21.55175,48.14001 -48.13828,48.13995 -26.5865,6e-5 -48.14,-21.55344 -48.13993,-48.13995 -7e-5,-26.58651 21.55343,-48.13834 48.13993,-48.13827 z"
         style="display:inline;opacity:1;fill:#ffffff;fill-opacity:1;fill-rule:evenodd;stroke:#ffffff;stroke-width:3.57434;stroke-miterlimit:4;stroke-dasharray:none;stroke-opacity:1" />
      <path
         sodipodi:nodetypes="cccsccccccccc"
         inkscape:connector-curvature="0"
         id="path5208"
         d="M 604.54913,395.35746 486.48029,525.15519 c -19.3522,-2.93922 -38.8988,3.93949 -52.14517,18.3506 -21.96226,23.94284 -20.35678,61.15626 3.58592,83.11864 23.94284,21.96227 61.15624,20.35679 83.11864,-3.58592 12.764,-13.94632 18.0477,-33.17718 14.20113,-51.68729 L 626.60809,470.66356 Z M 476.47727,552.36997 c 16.72927,-2.4e-4 30.29108,13.56158 30.29083,30.29083 -6.8e-4,16.72861 -13.56222,30.2894 -30.29083,30.28917 -16.72795,-7e-4 -30.28846,-13.56122 -30.28915,-30.28917 -2.4e-4,-16.72859 13.56055,-30.29013 30.28915,-30.29083 z"
         style="opacity:1;fill:#ffffff;fill-opacity:1;fill-rule:evenodd;stroke:#ffffff;stroke-width:3.09879088;stroke-miterlimit:4;stroke-dasharray:none;stroke-opacity:1" />
      <path
         sodipodi:nodetypes="cscccc"
         inkscape:connector-curvature="0"
         id="rect5219"
         d="m 744.82117,566.29268 c -5.15425,3.81997 -11.06532,6.81446 -17.59921,8.72833 -15.47331,4.53235 -31.27088,2.08108 -44.07097,-5.50804 l -27.50865,305.26148 h 112.99379 z"
         style="display:inline;opacity:1;fill:#ffffff;fill-opacity:1;fill-rule:evenodd;stroke:#ffffff;stroke-width:4.29372;stroke-miterlimit:4;stroke-dasharray:none;stroke-opacity:1" />
      <path
         inkscape:connector-curvature="0"
         id="rect5217"
         d="m 667.65839,300.61727 c -5.48211,-0.0846 -11.07546,0.64502 -16.62643,2.27097 -29.6051,8.67177 -46.45815,39.48517 -37.78637,69.09027 l 44.88443,153.23539 c 8.67177,29.60509 39.48685,46.45647 69.09194,37.78471 29.60511,-8.67178 46.45815,-39.48685 37.78638,-69.09195 L 720.12391,340.67294 c -7.04581,-24.05413 -28.70983,-39.68938 -52.46552,-40.05567 z m 44.61439,172.23005 a 37.415837,37.415837 0 0 1 37.41573,37.41572 37.415837,37.415837 0 0 1 -37.41573,37.41739 37.415837,37.415837 0 0 1 -37.41572,-37.41739 37.415837,37.415837 0 0 1 37.41572,-37.41572 z"
         style="display:inline;opacity:1;fill:#ffffff;fill-opacity:1;fill-rule:evenodd;stroke:#ffffff;stroke-width:4.29372;stroke-miterlimit:4;stroke-dasharray:none;stroke-opacity:1" />
      <circle
         r="21.50856"
         cy="510.26379"
         cx="712.27277"
         id="path5281"
         style="display:inline;opacity:1;fill:#ffffff;fill-opacity:1;fill-rule:evenodd;stroke:#ffffff;stroke-width:2.46825;stroke-miterlimit:4;stroke-dasharray:none;stroke-opacity:1" />
      <circle
         r="16.683794"
         style="display:inline;opacity:1;fill:#ffffff;fill-opacity:1;fill-rule:evenodd;stroke:#ffffff;stroke-width:2.69651;stroke-miterlimit:4;stroke-dasharray:none;stroke-opacity:1"
         id="circle5292"
         cx="476.47772"
         cy="582.6601" />
      <circle
         r="28.94976"
         cy="352.31909"
         cx="218.32677"
         id="path5281-7"
         style="display:inline;opacity:1;fill:#ffffff;fill-opacity:1;fill-rule:evenodd;stroke:#ffffff;stroke-width:3.32218;stroke-miterlimit:4;stroke-dasharray:none;stroke-opacity:1" />
    </g>
  </g>
</svg>
